<svg width="3229" height="1088" viewBox="0 0 3229 1088" fill="none" xmlns="http://www.w3.org/2000/svg">
<path d="M-0.000170537 667.074C-0.000170537 580.655 14.5648 505.889 43.6946 442.774C73.7955 378.688 114.577 330.138 166.04 297.125C217.503 263.14 275.277 246.147 339.363 246.147C392.767 246.147 438.404 257.314 476.273 279.647C515.113 301.009 544.728 330.624 565.119 368.493V0.00017744H888.46V1077.8H565.119V965.655C544.728 1003.52 515.113 1033.62 476.273 1055.96C438.404 1077.32 392.767 1088 339.363 1088C275.277 1088 217.503 1071.49 166.04 1038.48C114.577 1004.49 73.7955 955.945 43.6946 892.83C14.5648 828.744 -0.000170537 753.492 -0.000170537 667.074ZM566.575 667.074C566.575 623.379 555.409 589.394 533.076 565.119C510.743 540.844 482.099 528.707 447.143 528.707C412.187 528.707 383.543 540.844 361.21 565.119C338.877 589.394 327.711 623.379 327.711 667.074C327.711 710.769 338.877 744.753 361.21 769.028C383.543 793.303 412.187 805.44 447.143 805.44C482.099 805.44 510.743 793.303 533.076 769.028C555.409 744.753 566.575 710.769 566.575 667.074Z" fill="white"/>
<path d="M2838.61 1088L2634.25 757.189V1088H2307.85V0H2634.25V568.995L2841.55 258.768H3220.88L2910.66 676.324L3228.23 1088H2838.61Z" fill="white"/>
<rect x="1005.77" width="1184.78" height="1088" fill="white"/>
</svg>
