<svg width="2074" height="913" viewBox="0 0 2074 913" fill="none" xmlns="http://www.w3.org/2000/svg">
<path d="M294.734 481.287C294.734 477.807 294.734 470.846 294.734 460.404C294.734 449.646 294.418 437.465 293.785 423.859C293.152 409.938 292.045 395.225 290.463 379.721C288.881 364.217 286.35 349.82 282.869 336.531C275.275 326.723 266.732 318.021 257.24 310.428C248.064 302.518 236.199 298.562 221.645 298.562C196.965 298.562 178.771 314.699 167.064 346.973C155.674 379.246 149.979 429.238 149.979 496.949C149.979 526.691 151.244 553.902 153.775 578.582C156.623 603.262 160.736 624.461 166.115 642.18C171.811 659.898 178.93 673.662 187.473 683.471C196.332 693.279 206.773 698.184 218.797 698.184C269.422 698.184 294.734 625.885 294.734 481.287ZM289.039 272.459C283.027 240.818 274.643 211.393 263.885 184.182C253.127 156.654 240.154 132.924 224.967 112.99C210.096 93.0566 193.01 77.3945 173.709 66.0039C154.725 54.6133 134.158 48.918 112.01 48.918C99.3535 48.918 87.8047 50.5 77.3633 53.6641C67.2383 56.8281 58.3789 60.625 50.7852 65.0547C43.1914 69.168 36.8633 73.2812 31.8008 77.3945C27.0547 81.1914 23.5742 84.0391 21.3594 85.9375L9.01953 69.3262C16.6133 59.5176 25.7891 50.3418 36.5469 41.7988C47.6211 33.2559 59.6445 25.9785 72.6172 19.9668C85.5898 13.9551 99.1953 9.20898 113.434 5.72852C127.988 2.24805 142.385 0.507812 156.623 0.507812C203.451 0.507812 244.584 10.791 280.021 31.3574C315.459 51.6074 345.043 80.4004 368.773 117.736C392.504 155.072 410.381 200.16 422.404 253C434.428 305.84 440.439 364.533 440.439 429.08C440.439 481.287 435.061 527.166 424.303 566.717C413.861 606.268 398.832 639.49 379.215 666.385C359.598 692.963 335.709 713.055 307.549 726.66C279.705 739.949 248.223 746.594 213.102 746.594C188.738 746.594 163.9 742.322 138.588 733.779C113.592 724.92 90.8105 710.682 70.2441 691.064C49.9941 671.447 33.3828 645.818 20.4102 614.178C7.4375 582.221 0.951172 543.145 0.951172 496.949C0.951172 457.082 6.48828 421.645 17.5625 390.637C28.9531 359.629 44.1406 333.525 63.125 312.326C82.1094 290.811 104.1 274.516 129.096 263.441C154.092 252.051 180.512 246.355 208.355 246.355C219.113 246.355 228.764 247.305 237.307 249.203C245.85 250.785 253.285 252.842 259.613 255.373C265.941 257.904 271.479 260.752 276.225 263.916C280.971 266.764 285.242 269.611 289.039 272.459Z" fill="white"/>
<path d="M654.014 521.154C654.014 531.279 655.438 542.354 658.285 554.377C661.449 566.084 665.879 577.949 671.574 589.973C677.27 601.996 684.23 613.545 692.457 624.619C701 635.377 710.65 645.027 721.408 653.57C732.482 662.113 744.664 668.916 757.953 673.979C771.242 679.041 785.797 681.572 801.617 681.572C812.691 681.572 822.975 680.307 832.467 677.775C841.959 675.244 850.818 671.764 859.045 667.334C867.271 662.904 875.182 657.842 882.775 652.146C890.369 646.135 897.963 639.807 905.557 633.162L917.422 644.553C910.145 654.361 900.811 665.119 889.42 676.826C878.029 688.533 864.266 699.607 848.129 710.049C831.992 720.174 813.166 728.717 791.65 735.678C770.135 742.322 745.613 745.645 718.086 745.645C690.559 745.645 663.664 740.74 637.402 730.932C611.457 720.807 588.359 705.777 568.109 685.844C547.859 665.91 531.564 641.072 519.225 611.33C507.201 581.588 501.189 546.783 501.189 506.916C501.189 478.123 504.828 451.703 512.105 427.656C519.383 403.609 529.191 381.936 541.531 362.635C554.188 343.334 568.742 326.406 585.195 311.852C601.965 297.297 619.525 285.273 637.877 275.781C656.229 265.973 674.896 258.695 693.881 253.949C713.182 248.887 731.691 246.355 749.41 246.355C772.824 246.355 793.232 248.887 810.635 253.949C828.037 259.012 842.434 265.814 853.824 274.357C865.531 282.9 874.232 292.867 879.928 304.258C885.623 315.332 888.471 327.039 888.471 339.379C888.471 354.25 884.199 367.697 875.656 379.721C867.113 391.428 855.723 401.711 841.484 410.57L654.014 521.154ZM749.41 424.809C753.523 422.277 756.846 419.904 759.377 417.689C762.225 415.158 764.439 412.311 766.021 409.146C767.604 405.666 768.711 401.553 769.344 396.807C770.293 391.744 770.768 385.574 770.768 378.297C770.768 370.387 769.818 361.686 767.92 352.193C766.338 342.385 763.49 333.209 759.377 324.666C755.264 316.123 750.043 309.004 743.715 303.309C737.387 297.613 729.793 294.766 720.934 294.766C709.543 294.766 699.734 298.246 691.508 305.207C683.598 311.852 676.953 320.553 671.574 331.311C666.512 342.068 662.398 354.408 659.234 368.33C656.387 381.936 654.172 395.699 652.59 409.621C651.008 423.543 650.059 436.99 649.742 449.963C649.426 462.619 649.268 473.377 649.268 482.236L749.41 424.809Z" fill="white"/>
<path d="M1273.38 410.57C1263.57 410.57 1255.34 409.146 1248.7 406.299C1242.05 403.135 1236.68 399.021 1232.56 393.959C1228.45 388.896 1225.44 383.359 1223.54 377.348C1221.65 371.02 1220.7 364.533 1220.7 357.889C1220.7 349.346 1221.17 341.119 1222.12 333.209C1223.39 325.299 1223.54 318.18 1222.6 311.852C1221.96 305.523 1219.59 300.461 1215.48 296.664C1211.36 292.867 1204.09 290.969 1193.64 290.969C1182.57 290.969 1170.86 294.133 1158.52 300.461C1146.18 306.789 1134.95 316.756 1124.83 330.361C1114.7 343.967 1106.32 361.527 1099.67 383.043C1093.03 404.242 1089.71 429.871 1089.71 459.93C1089.71 493.152 1092.71 523.527 1098.72 551.055C1105.05 578.266 1114.38 601.521 1126.72 620.822C1139.06 640.123 1154.41 655.152 1172.76 665.91C1191.11 676.352 1212.63 681.572 1237.31 681.572C1248.38 681.572 1258.82 680.307 1268.63 677.775C1278.76 675.244 1288.25 671.764 1297.11 667.334C1305.97 662.904 1314.35 657.842 1322.26 652.146C1330.49 646.135 1338.4 639.807 1345.99 633.162L1357.86 644.553C1350.58 654.361 1341.25 665.119 1329.86 676.826C1318.47 688.533 1304.7 699.607 1288.57 710.049C1272.43 720.174 1253.6 728.717 1232.09 735.678C1210.57 742.322 1186.05 745.645 1158.52 745.645C1131 745.645 1104.1 740.424 1077.84 729.982C1051.89 719.225 1028.8 703.721 1008.55 683.471C988.297 663.221 972.002 638.699 959.662 609.906C947.639 580.797 941.627 547.732 941.627 510.713C941.627 481.92 945.266 455.5 952.543 431.453C959.82 407.09 969.629 385.1 981.969 365.482C994.625 345.865 1009.18 328.621 1025.63 313.75C1042.4 298.879 1059.96 286.539 1078.31 276.73C1096.67 266.605 1115.33 259.012 1134.32 253.949C1153.62 248.887 1172.13 246.355 1189.85 246.355C1213.26 246.355 1233.67 249.045 1251.07 254.424C1268.47 259.803 1282.87 266.922 1294.26 275.781C1305.97 284.641 1314.67 294.924 1320.37 306.631C1326.06 318.021 1328.91 329.887 1328.91 342.227C1328.91 351.402 1327.64 360.262 1325.11 368.805C1322.9 377.031 1319.42 384.309 1314.67 390.637C1310.24 396.648 1304.54 401.553 1297.58 405.35C1290.62 408.83 1282.55 410.57 1273.38 410.57Z" fill="white"/>
<path d="M1559.09 375.449C1570.17 360.578 1582.03 345.549 1594.69 330.361C1607.35 314.857 1620.95 300.936 1635.51 288.596C1650.06 276.256 1665.88 266.131 1682.97 258.221C1700.05 250.311 1718.72 246.355 1738.97 246.355C1757.01 246.355 1772.04 249.994 1784.06 257.271C1796.08 264.232 1805.73 272.775 1813.01 282.9C1820.6 292.709 1825.82 302.992 1828.67 313.75C1831.84 324.508 1833.42 333.684 1833.42 341.277C1833.42 355.199 1831.52 369.754 1827.72 384.941C1824.24 399.812 1818.07 414.684 1809.21 429.555C1800.67 444.109 1789.12 458.348 1774.57 472.27C1760.01 485.875 1741.66 498.373 1719.51 509.764C1749.25 572.729 1778.21 626.992 1806.37 672.555C1834.53 717.801 1861.58 754.979 1887.52 784.088C1913.79 813.514 1938.94 835.188 1962.99 849.109C1987.03 863.031 2009.97 869.992 2031.8 869.992C2035.6 869.992 2039.4 869.518 2043.2 868.568C2046.99 867.619 2050.47 866.512 2053.64 865.246C2057.12 863.98 2060.76 862.398 2064.55 860.5L2073.57 877.111C2065.03 881.857 2056.33 886.287 2047.47 890.4C2038.61 894.83 2028.48 898.627 2017.09 901.791C2005.7 904.955 1992.57 907.486 1977.7 909.385C1962.83 911.283 1945.11 912.232 1924.54 912.232C1905.88 912.232 1887.37 910.018 1869.01 905.588C1850.98 901.158 1832.79 893.248 1814.43 881.857C1796.08 870.467 1777.41 855.279 1758.43 836.295C1739.76 817.311 1720.46 793.264 1700.53 764.154C1680.91 735.045 1660.66 700.398 1639.78 660.215C1618.89 620.031 1597.22 573.045 1574.76 519.256C1605.13 496.791 1629.02 476.066 1646.42 457.082C1663.82 437.781 1676.96 420.379 1685.81 404.875C1694.67 389.371 1700.21 375.607 1702.43 363.584C1704.64 351.561 1705.75 341.277 1705.75 332.734C1705.75 331.469 1705.59 329.412 1705.27 326.564C1704.96 323.4 1703.85 320.395 1701.95 317.547C1700.37 314.699 1697.84 312.168 1694.36 309.953C1691.19 307.738 1686.61 306.631 1680.59 306.631C1668.89 306.631 1657.02 311.693 1645 321.818C1632.97 331.627 1621.43 343.967 1610.35 358.838C1599.59 373.393 1589.79 389.213 1580.93 406.299C1572.07 423.068 1564.79 438.414 1559.09 452.336V697.234C1559.09 701.348 1558.3 706.252 1556.72 711.947C1555.46 717.643 1552.13 723.021 1546.75 728.084C1541.69 733.146 1534.1 737.418 1523.97 740.898C1514.16 744.695 1500.88 746.594 1484.11 746.594C1467.34 746.594 1454.21 744.537 1444.71 740.424C1435.22 736.627 1428.1 732.039 1423.36 726.66C1418.93 721.281 1416.08 715.744 1414.81 710.049C1413.86 704.354 1413.39 699.766 1413.39 696.285V84.0391C1413.39 74.8633 1411.17 66.9531 1406.74 60.3086C1402.63 53.3477 1395.51 49.8672 1385.39 49.8672C1380.01 49.8672 1375.26 50.8164 1371.15 52.7148C1367.35 54.2969 1363.24 56.8281 1358.81 60.3086L1349.32 48.918C1356.59 42.9062 1364.66 37.0527 1373.52 31.3574C1382.38 25.3457 1392.03 20.125 1402.47 15.6953C1413.23 11.2656 1424.62 7.62695 1436.64 4.7793C1448.67 1.93164 1461.32 0.507812 1474.61 0.507812C1495.18 0.507812 1511.16 3.35547 1522.55 9.05078C1533.94 14.4297 1542.32 21.2324 1547.7 29.459C1553.08 37.3691 1556.25 45.9121 1557.2 55.0879C1558.46 63.9473 1559.09 71.8574 1559.09 78.8184V375.449Z" fill="white"/>
</svg>
